<svg id="Grille_Shutter_Park_Sensors" data-name="Grille Shutter/ Park Sensors" xmlns="http://www.w3.org/2000/svg" width="327.604" height="28.236" viewBox="0 0 327.604 28.236">
  <g id="Grille_Shutter_Park_Sensors-2" data-name="Grille Shutter/ Park Sensors" transform="translate(-4 -3.333)" fill="none" opacity="0.48" style="mix-blend-mode: hard-light;isolation: isolate">
    <path d="M5.666,14,4,3.333,30,8l7.334,8.667h47l3-5L93.666,8H240l6.334,3.667,3,6.333h48.332l9-10,24.668-4.667s3.092,24.277-11.668,27.018-34.666,0-34.666,0a76.715,76.715,0,0,0-15.666-1.9c-24.246-.421-65.318-2.115-96-3.121-41.272.2-86.079,2.826-106.668,3.121-14.547.844-7.32.577-15.332,1.9s-18.9.1-21.334,0c-15.1.474-18.548-1.3-18.666-1.9C3.955,25.924,5.666,14,5.666,14Z" stroke="none"/>
    <path d="M 329.5235595703125 5.711427688598633 L 307.7010192871094 9.839653015136719 L 298.5567626953125 19.99998092651367 L 248.0682983398438 19.99998092651367 L 244.7930603027344 13.08540153503418 L 239.462890625 9.999980926513672 L 94.2032470703125 9.999980926513672 L 88.78323364257812 13.13837623596191 L 85.46633911132812 18.66648101806641 L 36.40643310546875 18.66648101806641 L 28.93826293945312 9.84138298034668 L 6.409149169921875 5.797840118408203 L 7.68829345703125 13.98743629455566 L 7.645751953125 14.28407287597656 C 7.641876220703125 14.31093597412109 7.26483154296875 17.00889015197754 7.710784912109375 19.98148155212402 C 8.24761962890625 23.56025314331055 9.6849365234375 25.77434539794922 11.98269653320312 26.56225395202637 L 13.070556640625 26.93529891967773 L 13.14260864257812 27.29671287536621 C 14.11883544921875 27.65020751953125 17.18572998046875 28.43111801147461 25.22128295898438 28.43111801147461 C 26.69137573242188 28.43111801147461 28.27801513671875 28.40470886230469 29.93716430664062 28.35257339477539 L 30.00796508789062 28.35034561157227 L 30.07879638671875 28.35311889648438 C 30.539794921875 28.37129974365234 31.24737548828125 28.42439079284668 32.14315795898438 28.49157333374023 C 34.48062133789062 28.66693496704102 38.39276123046875 28.96039009094238 42.462646484375 28.96039009094238 C 45.78973388671875 28.96039009094238 48.66506958007812 28.7645263671875 51.00869750976562 28.37820816040039 C 53.71121215820312 27.93275451660156 54.56597900390625 27.68711853027344 55.19015502929688 27.50775527954102 C 56.65377807617188 27.08716201782227 57.16339111328125 27.0019359588623 66.55020141601562 26.45748138427734 L 66.63739013671875 26.454345703125 C 74.35238647460938 26.34379959106445 85.58966064453125 25.90107345581055 98.60128784179688 25.38848114013672 C 120.4018402099609 24.5296630859375 147.5332946777344 23.46084594726562 173.3241119384766 23.33352661132812 L 173.3618316650391 23.33329963684082 L 173.3995208740234 23.33457183837891 C 183.2122497558594 23.65629959106445 193.8592987060547 24.04007339477539 205.1314239501953 24.44643592834473 C 228.60400390625 25.29253387451172 252.8755187988281 26.16743087768555 269.3507080078125 26.45412063598633 C 276.8975830078125 26.45650863647461 284.3547058105469 28.14538192749023 285.3642578125 28.38248634338379 C 286.3263549804688 28.50920867919922 294.6646423339844 29.56966400146484 304.1186218261719 29.56966400146484 C 309.9600524902344 29.56966400146484 315.068115234375 29.17116355895996 319.3008728027344 28.38516235351562 C 322.1474304199219 27.85661697387695 324.3502807617188 26.38579940795898 326.0354309082031 23.88866424560547 C 327.4552001953125 21.78475379943848 328.46923828125 18.98316383361816 329.0493774414062 15.5616626739502 C 329.6996765136719 11.72633171081543 329.6494750976562 7.966264724731445 329.5235595703125 5.711427688598633 M 3.999969482421875 3.333480834960938 L 29.99996948242188 7.999980926513672 L 37.333984375 16.66648101806641 L 84.33396911621094 16.66648101806641 L 87.33396911621094 11.66648101806641 L 93.666015625 7.999980926513672 L 239.9999694824219 7.999980926513672 L 246.333984375 11.66648101806641 L 249.333984375 17.99998092651367 L 297.666015625 17.99998092651367 L 306.666015625 7.999980926513672 L 331.333984375 3.333480834960938 C 331.333984375 3.333480834960938 334.42578125 27.6108455657959 319.666015625 30.35157203674316 C 304.90625 33.09230041503906 284.9999694824219 30.35157203674316 284.9999694824219 30.35157203674316 C 284.9999694824219 30.35157203674316 277.13671875 28.45411682128906 269.333984375 28.45411682128906 C 245.087890625 28.0327091217041 204.0155181884766 26.33948135375977 173.3339691162109 25.33348083496094 C 132.0617980957031 25.53725433349609 87.25465393066406 28.15911865234375 66.666015625 28.45411682128906 C 52.11917114257812 29.2978458404541 59.345703125 29.03102684020996 51.333984375 30.35157203674316 C 43.32232666015625 31.67211151123047 32.4312744140625 30.44743728637695 29.99996948242188 30.35157203674316 C 14.89523315429688 30.82603073120117 11.45223999023438 29.04752540588379 11.333984375 28.45411682128906 C 3.955078125 25.9238452911377 5.666015625 13.99998092651367 5.666015625 13.99998092651367 L 3.999969482421875 3.333480834960938 Z" stroke="none" fill="#fc0303"/>
  </g>
</svg>
