<svg xmlns="http://www.w3.org/2000/svg" xmlns:xlink="http://www.w3.org/1999/xlink" width="389.535" height="57.867" viewBox="0 0 389.535 57.867">
  <defs>
    <filter id="Grille_Shutter_Park_Sensors" x="0" y="0" width="389.535" height="57.867" filterUnits="userSpaceOnUse">
      <feOffset dy="3" input="SourceAlpha"/>
      <feGaussianBlur stdDeviation="3" result="blur"/>
      <feFlood/>
      <feComposite operator="in" in2="blur"/>
    </filter>
    <filter id="Grille_Shutter_Park_Sensors-2" x="0" y="0" width="389.535" height="57.867" filterUnits="userSpaceOnUse">
      <feOffset dy="3" input="SourceAlpha"/>
      <feGaussianBlur stdDeviation="3" result="blur-2"/>
      <feFlood result="color"/>
      <feComposite operator="out" in="SourceGraphic" in2="blur-2"/>
      <feComposite operator="in" in="color"/>
      <feComposite operator="in" in2="SourceGraphic"/>
    </filter>
  </defs>
  <g id="Component_95" data-name="Component 95" transform="translate(10.809 7.5)">
    <g data-type="innerShadowGroup">
      <g transform="matrix(1, 0, 0, 1, -10.81, -7.5)" filter="url(#Grille_Shutter_Park_Sensors)" style="mix-blend-mode: hard-light;isolation: isolate">
        <path id="Grille_Shutter_Park_Sensors-3" data-name="Grille Shutter/ Park Sensors" d="M4.584,15.32,2.323,3.333H30.774s5.194,10.045,7.133,11.986,5.9,2.6,7.518,3.271c3.445,1.83.032.751,10.6.964,14.527.293,37.011,0,37.011,0L89.183,9.724s-5.012-5.841-6.554-6.391,19.854,1.378,19.854,1.378H268.841l23.518-2.7a56.031,56.031,0,0,0-7.325,8.289,71.874,71.874,0,0,0-5.59,10.409s29.7.936,45.686,0c5.868-.344,13.022-5.647,15.035-9.445a42.98,42.98,0,0,0,4.048-12.347H370.2s-1.324,6.251-2.661,14.853c-1.076,3.875-1.258,9.1-2.313,10.988-3.122,5.6-3.633,6.034-8.1,7.132-6.619,1.63-14.063,1.069-23.518.964-8.048-.089-12.337.818-14.843,0-5.275-1.723-10.184-2.7-18.892-2.7-27.059-.474-72.928-1.968-107.168-3.1-11.883.059-24.385.467-37.077,1.059-35.39,1.65-70.263,4.724-87.312,4.97-9.366.861-1.933.239-10.874,1.723s-22.479.861-25.192.753C15.4,36.1,16.1,34.164,14.7,33.695a13.286,13.286,0,0,1-7.429-6.636C5.286,22.65,4.584,15.32,4.584,15.32Z" transform="translate(8.49 8.58)" fill="#0f2" stroke="#fc0303" stroke-width="3" opacity="0.66"/>
      </g>
      <path id="Grille_Shutter_Park_Sensors-4" data-name="Grille Shutter/ Park Sensors" d="M4.584,15.32,2.323,3.333H30.774s5.194,10.045,7.133,11.986,5.9,2.6,7.518,3.271c3.445,1.83.032.751,10.6.964,14.527.293,37.011,0,37.011,0L89.183,9.724s-5.012-5.841-6.554-6.391,19.854,1.378,19.854,1.378H268.841l23.518-2.7a56.031,56.031,0,0,0-7.325,8.289,71.874,71.874,0,0,0-5.59,10.409s29.7.936,45.686,0c5.868-.344,13.022-5.647,15.035-9.445a42.98,42.98,0,0,0,4.048-12.347H370.2s-1.324,6.251-2.661,14.853c-1.076,3.875-1.258,9.1-2.313,10.988-3.122,5.6-3.633,6.034-8.1,7.132-6.619,1.63-14.063,1.069-23.518.964-8.048-.089-12.337.818-14.843,0-5.275-1.723-10.184-2.7-18.892-2.7-27.059-.474-72.928-1.968-107.168-3.1-11.883.059-24.385.467-37.077,1.059-35.39,1.65-70.263,4.724-87.312,4.97-9.366.861-1.933.239-10.874,1.723s-22.479.861-25.192.753C15.4,36.1,16.1,34.164,14.7,33.695a13.286,13.286,0,0,1-7.429-6.636C5.286,22.65,4.584,15.32,4.584,15.32Z" transform="translate(-2.323 1.081)" fill="#0f2" opacity="0.66" style="mix-blend-mode: hard-light;isolation: isolate"/>
      <g transform="matrix(1, 0, 0, 1, -10.81, -7.5)" filter="url(#Grille_Shutter_Park_Sensors-2)" style="mix-blend-mode: hard-light;isolation: isolate">
        <path id="Grille_Shutter_Park_Sensors-5" data-name="Grille Shutter/ Park Sensors" d="M4.584,15.32,2.323,3.333H30.774s5.194,10.045,7.133,11.986,5.9,2.6,7.518,3.271c3.445,1.83.032.751,10.6.964,14.527.293,37.011,0,37.011,0L89.183,9.724s-5.012-5.841-6.554-6.391,19.854,1.378,19.854,1.378H268.841l23.518-2.7a56.031,56.031,0,0,0-7.325,8.289,71.874,71.874,0,0,0-5.59,10.409s29.7.936,45.686,0c5.868-.344,13.022-5.647,15.035-9.445a42.98,42.98,0,0,0,4.048-12.347H370.2s-1.324,6.251-2.661,14.853c-1.076,3.875-1.258,9.1-2.313,10.988-3.122,5.6-3.633,6.034-8.1,7.132-6.619,1.63-14.063,1.069-23.518.964-8.048-.089-12.337.818-14.843,0-5.275-1.723-10.184-2.7-18.892-2.7-27.059-.474-72.928-1.968-107.168-3.1-11.883.059-24.385.467-37.077,1.059-35.39,1.65-70.263,4.724-87.312,4.97-9.366.861-1.933.239-10.874,1.723s-22.479.861-25.192.753C15.4,36.1,16.1,34.164,14.7,33.695a13.286,13.286,0,0,1-7.429-6.636C5.286,22.65,4.584,15.32,4.584,15.32Z" transform="translate(8.49 8.58)" fill="#fff" opacity="0.66"/>
      </g>
      <path id="Grille_Shutter_Park_Sensors-6" data-name="Grille Shutter/ Park Sensors" d="M4.584,15.32,2.323,3.333H30.774s5.194,10.045,7.133,11.986,5.9,2.6,7.518,3.271c3.445,1.83.032.751,10.6.964,14.527.293,37.011,0,37.011,0L89.183,9.724s-5.012-5.841-6.554-6.391,19.854,1.378,19.854,1.378H268.841l23.518-2.7a56.031,56.031,0,0,0-7.325,8.289,71.874,71.874,0,0,0-5.59,10.409s29.7.936,45.686,0c5.868-.344,13.022-5.647,15.035-9.445a42.98,42.98,0,0,0,4.048-12.347H370.2s-1.324,6.251-2.661,14.853c-1.076,3.875-1.258,9.1-2.313,10.988-3.122,5.6-3.633,6.034-8.1,7.132-6.619,1.63-14.063,1.069-23.518.964-8.048-.089-12.337.818-14.843,0-5.275-1.723-10.184-2.7-18.892-2.7-27.059-.474-72.928-1.968-107.168-3.1-11.883.059-24.385.467-37.077,1.059-35.39,1.65-70.263,4.724-87.312,4.97-9.366.861-1.933.239-10.874,1.723s-22.479.861-25.192.753C15.4,36.1,16.1,34.164,14.7,33.695a13.286,13.286,0,0,1-7.429-6.636C5.286,22.65,4.584,15.32,4.584,15.32Z" transform="translate(-2.323 1.081)" fill="none" stroke="#fc0303" stroke-width="3" opacity="0.66" style="mix-blend-mode: hard-light;isolation: isolate"/>
    </g>
  </g>
</svg>
