<svg xmlns="http://www.w3.org/2000/svg" xmlns:xlink="http://www.w3.org/1999/xlink" width="95.788" height="56.859" viewBox="0 0 95.788 56.859">
  <defs>
    <filter id="AFL_Left" x="0" y="0" width="95.788" height="56.859" filterUnits="userSpaceOnUse">
      <feOffset dy="3" input="SourceAlpha"/>
      <feGaussianBlur stdDeviation="3" result="blur"/>
      <feFlood flood-opacity="0.988"/>
      <feComposite operator="in" in2="blur"/>
    </filter>
    <filter id="AFL_Left-2" x="0" y="0" width="95.788" height="56.859" filterUnits="userSpaceOnUse">
      <feOffset dy="3" input="SourceAlpha"/>
      <feGaussianBlur stdDeviation="3" result="blur-2"/>
      <feFlood result="color"/>
      <feComposite operator="out" in="SourceGraphic" in2="blur-2"/>
      <feComposite operator="in" in="color"/>
      <feComposite operator="in" in2="SourceGraphic"/>
    </filter>
  </defs>
  <g id="Component_96" data-name="Component 96" transform="translate(9 6)">
    <g data-type="innerShadowGroup">
      <g transform="matrix(1, 0, 0, 1, -9, -6)" filter="url(#AFL_Left)" style="mix-blend-mode: overlay;isolation: isolate">
        <g id="AFL_Left-3" data-name="AFL Left" transform="translate(-4.46 9.96)" fill="#05f">
          <path d="M 29.44248199462891 34.1456298828125 C 29.44232177734375 34.1456298828125 29.44242286682129 34.1456298828125 29.44226455688477 34.1456298828125 C 27.93231964111328 34.14559555053711 26.56670761108398 33.87967300415039 25.38336372375488 33.35523986816406 C 22.17290878295898 31.93243408203125 17.29149436950684 29.62735557556152 15.02178192138672 28.54956245422363 L 30.02407646179199 19.26235961914062 L 45.20417022705078 11.19190502166748 L 68.2813720703125 1.191659927368164 C 73.23819732666016 -0.505101203918457 81.51413726806641 -3.179870843887329 82.85327911376953 -3.213496208190918 C 83.05243682861328 -3.144542694091797 83.32447814941406 -3.080219507217407 83.71005249023438 -2.989058971405029 C 84.69039916992188 -2.757258892059326 86.3311767578125 -2.369314432144165 87.73820495605469 -1.601870059967041 C 89.34474182128906 -0.7256144881248474 90.21492767333984 0.3843077123165131 90.39848327636719 1.791341066360474 C 90.95228576660156 6.036341190338135 88.94880676269531 10.14094066619873 88.92849731445312 10.18190765380859 L 88.89126586914062 10.25705242156982 L 88.8712158203125 10.33920764923096 L 85.97962951660156 22.29035186767578 L 85.97500610351562 22.30947494506836 L 85.97138977050781 22.32881927490234 C 85.62889862060547 24.15642929077148 84.76556396484375 27.33032989501953 83.90702819824219 28.06623077392578 C 83.79288482666016 28.1640625 82.97750854492188 28.67670822143555 78.12185668945312 29.16176414489746 C 75.50071716308594 29.42360687255859 73.0113525390625 29.54352951049805 72.98651123046875 29.54470825195312 L 72.96800994873047 29.54558563232422 L 72.94955444335938 29.54738616943359 L 34.39594268798828 33.29444122314453 L 34.29568481445312 33.30418395996094 L 34.20155334472656 33.34003067016602 C 34.1810302734375 33.34779739379883 32.04180145263672 34.1456298828125 29.44248199462891 34.1456298828125 Z" stroke="none"/>
          <path d="M 82.76873779296875 -2.453361511230469 C 82.34752655029297 -2.399330139160156 80.75135040283203 -2.082027435302734 75.13557434082031 -0.2853469848632812 C 71.97873687744141 0.7246360778808594 68.99324035644531 1.741153717041016 68.55204010009766 1.891761779785156 L 45.5298957824707 11.86814880371094 L 30.39781188964844 19.91307830810547 L 16.5882568359375 28.46191215515137 C 19.10023498535156 29.64976692199707 22.98740386962891 31.4730396270752 25.68724060058594 32.66956329345703 C 26.77436065673828 33.15134048461914 28.0377197265625 33.3956298828125 29.44224548339844 33.3956298828125 C 31.89209747314453 33.3956298828125 33.91764068603516 32.6455078125 33.93463134765625 32.63914108276367 L 34.12288665771484 32.56744003295898 L 72.95094299316406 28.79554176330566 C 72.97410583496094 28.79444122314453 75.29667663574219 28.68268585205078 77.81128692626953 28.43870735168457 C 82.20003509521484 28.01289749145508 83.2572021484375 27.56988525390625 83.44349670410156 27.47266387939453 C 83.55477142333984 27.35480117797852 84.02220153808594 26.76727676391602 84.62297058105469 24.71033096313477 C 85.00547790527344 23.40069580078125 85.23201751708984 22.20238494873047 85.23417663574219 22.19089698791504 L 85.25066375732422 22.11398506164551 L 88.18203735351562 9.998407363891602 L 88.2574462890625 9.846975326538086 C 88.27674102783203 9.808208465576172 90.18132781982422 5.924419403076172 89.65477752685547 1.888362884521484 C 89.50445556640625 0.7360858917236328 88.76006317138672 -0.1902027130126953 87.37907409667969 -0.9434471130371094 C 86.06051635742188 -1.662624359130859 84.48113250732422 -2.036060333251953 83.5374755859375 -2.259181976318359 C 83.21951293945312 -2.334362030029297 82.97347259521484 -2.392536163330078 82.76873779296875 -2.453361511230469 M 82.87782287597656 -3.963821411132812 C 82.95192718505859 -3.963802337646484 83.00851440429688 -3.956684112548828 83.04551696777344 -3.941890716552734 C 84.00938415527344 -3.556636810302734 90.55038452148438 -2.841804504394531 91.14217376708984 1.694318771362305 C 91.73396301269531 6.230440139770508 89.60018920898438 10.51558494567871 89.60018920898438 10.51558494567871 L 86.70859527587891 22.46673011779785 C 86.70859527587891 22.46673011779785 85.77596282958984 27.45206260681152 84.39511871337891 28.63566398620605 C 83.0142822265625 29.81925201416016 73.02210998535156 30.29385185241699 73.02210998535156 30.29385185241699 L 34.46849822998047 34.04092025756836 C 34.46849060058594 34.04092025756836 29.41878509521484 35.96401214599609 25.07948303222656 34.04092025756836 C 20.74017333984375 32.11782073974609 13.45780944824219 28.63566398620605 13.45780944824219 28.63566398620605 L 29.65013885498047 18.61176300048828 L 44.87862014770508 10.51558494567871 L 68.01040649414062 0.4916858673095703 C 68.01040649414062 0.4916858673095703 81.02169799804688 -3.964248657226562 82.87782287597656 -3.963821411132812 Z" stroke="none" fill="#33fc03"/>
        </g>
      </g>
      <g id="AFL_Left-4" data-name="AFL Left" transform="translate(-13.458 3.964)" fill="#05f" style="mix-blend-mode: overlay;isolation: isolate">
        <path d="M 29.44248199462891 34.1456298828125 C 29.44232177734375 34.1456298828125 29.44242286682129 34.1456298828125 29.44226455688477 34.1456298828125 C 27.93231964111328 34.14559555053711 26.56670761108398 33.87967300415039 25.38336372375488 33.35523986816406 C 22.17290878295898 31.93243408203125 17.29149436950684 29.62735557556152 15.02178192138672 28.54956245422363 L 30.02407646179199 19.26235961914062 L 45.20417022705078 11.19190502166748 L 68.2813720703125 1.191659927368164 C 73.23819732666016 -0.505101203918457 81.51413726806641 -3.179870843887329 82.85327911376953 -3.213496208190918 C 83.05243682861328 -3.144542694091797 83.32447814941406 -3.080219507217407 83.71005249023438 -2.989058971405029 C 84.69039916992188 -2.757258892059326 86.3311767578125 -2.369314432144165 87.73820495605469 -1.601870059967041 C 89.34474182128906 -0.7256144881248474 90.21492767333984 0.3843077123165131 90.39848327636719 1.791341066360474 C 90.95228576660156 6.036341190338135 88.94880676269531 10.14094066619873 88.92849731445312 10.18190765380859 L 88.89126586914062 10.25705242156982 L 88.8712158203125 10.33920764923096 L 85.97962951660156 22.29035186767578 L 85.97500610351562 22.30947494506836 L 85.97138977050781 22.32881927490234 C 85.62889862060547 24.15642929077148 84.76556396484375 27.33032989501953 83.90702819824219 28.06623077392578 C 83.79288482666016 28.1640625 82.97750854492188 28.67670822143555 78.12185668945312 29.16176414489746 C 75.50071716308594 29.42360687255859 73.0113525390625 29.54352951049805 72.98651123046875 29.54470825195312 L 72.96800994873047 29.54558563232422 L 72.94955444335938 29.54738616943359 L 34.39594268798828 33.29444122314453 L 34.29568481445312 33.30418395996094 L 34.20155334472656 33.34003067016602 C 34.1810302734375 33.34779739379883 32.04180145263672 34.1456298828125 29.44248199462891 34.1456298828125 Z" stroke="none"/>
        <path d="M 82.76873779296875 -2.453361511230469 C 82.34752655029297 -2.399330139160156 80.75135040283203 -2.082027435302734 75.13557434082031 -0.2853469848632812 C 71.97873687744141 0.7246360778808594 68.99324035644531 1.741153717041016 68.55204010009766 1.891761779785156 L 45.5298957824707 11.86814880371094 L 30.39781188964844 19.91307830810547 L 16.5882568359375 28.46191215515137 C 19.10023498535156 29.64976692199707 22.98740386962891 31.4730396270752 25.68724060058594 32.66956329345703 C 26.77436065673828 33.15134048461914 28.0377197265625 33.3956298828125 29.44224548339844 33.3956298828125 C 31.89209747314453 33.3956298828125 33.91764068603516 32.6455078125 33.93463134765625 32.63914108276367 L 34.12288665771484 32.56744003295898 L 72.95094299316406 28.79554176330566 C 72.97410583496094 28.79444122314453 75.29667663574219 28.68268585205078 77.81128692626953 28.43870735168457 C 82.20003509521484 28.01289749145508 83.2572021484375 27.56988525390625 83.44349670410156 27.47266387939453 C 83.55477142333984 27.35480117797852 84.02220153808594 26.76727676391602 84.62297058105469 24.71033096313477 C 85.00547790527344 23.40069580078125 85.23201751708984 22.20238494873047 85.23417663574219 22.19089698791504 L 85.25066375732422 22.11398506164551 L 88.18203735351562 9.998407363891602 L 88.2574462890625 9.846975326538086 C 88.27674102783203 9.808208465576172 90.18132781982422 5.924419403076172 89.65477752685547 1.888362884521484 C 89.50445556640625 0.7360858917236328 88.76006317138672 -0.1902027130126953 87.37907409667969 -0.9434471130371094 C 86.06051635742188 -1.662624359130859 84.48113250732422 -2.036060333251953 83.5374755859375 -2.259181976318359 C 83.21951293945312 -2.334362030029297 82.97347259521484 -2.392536163330078 82.76873779296875 -2.453361511230469 M 82.87782287597656 -3.963821411132812 C 82.95192718505859 -3.963802337646484 83.00851440429688 -3.956684112548828 83.04551696777344 -3.941890716552734 C 84.00938415527344 -3.556636810302734 90.55038452148438 -2.841804504394531 91.14217376708984 1.694318771362305 C 91.73396301269531 6.230440139770508 89.60018920898438 10.51558494567871 89.60018920898438 10.51558494567871 L 86.70859527587891 22.46673011779785 C 86.70859527587891 22.46673011779785 85.77596282958984 27.45206260681152 84.39511871337891 28.63566398620605 C 83.0142822265625 29.81925201416016 73.02210998535156 30.29385185241699 73.02210998535156 30.29385185241699 L 34.46849822998047 34.04092025756836 C 34.46849060058594 34.04092025756836 29.41878509521484 35.96401214599609 25.07948303222656 34.04092025756836 C 20.74017333984375 32.11782073974609 13.45780944824219 28.63566398620605 13.45780944824219 28.63566398620605 L 29.65013885498047 18.61176300048828 L 44.87862014770508 10.51558494567871 L 68.01040649414062 0.4916858673095703 C 68.01040649414062 0.4916858673095703 81.02169799804688 -3.964248657226562 82.87782287597656 -3.963821411132812 Z" stroke="none"/>
      </g>
      <g transform="matrix(1, 0, 0, 1, -9, -6)" filter="url(#AFL_Left-2)" style="mix-blend-mode: overlay;isolation: isolate">
        <g id="AFL_Left-5" data-name="AFL Left" transform="translate(-4.46 9.96)" fill="#fff">
          <path d="M 29.44248199462891 34.1456298828125 C 29.44232177734375 34.1456298828125 29.44242286682129 34.1456298828125 29.44226455688477 34.1456298828125 C 27.93231964111328 34.14559555053711 26.56670761108398 33.87967300415039 25.38336372375488 33.35523986816406 C 22.17290878295898 31.93243408203125 17.29149436950684 29.62735557556152 15.02178192138672 28.54956245422363 L 30.02407646179199 19.26235961914062 L 45.20417022705078 11.19190502166748 L 68.2813720703125 1.191659927368164 C 73.23819732666016 -0.505101203918457 81.51413726806641 -3.179870843887329 82.85327911376953 -3.213496208190918 C 83.05243682861328 -3.144542694091797 83.32447814941406 -3.080219507217407 83.71005249023438 -2.989058971405029 C 84.69039916992188 -2.757258892059326 86.3311767578125 -2.369314432144165 87.73820495605469 -1.601870059967041 C 89.34474182128906 -0.7256144881248474 90.21492767333984 0.3843077123165131 90.39848327636719 1.791341066360474 C 90.95228576660156 6.036341190338135 88.94880676269531 10.14094066619873 88.92849731445312 10.18190765380859 L 88.89126586914062 10.25705242156982 L 88.8712158203125 10.33920764923096 L 85.97962951660156 22.29035186767578 L 85.97500610351562 22.30947494506836 L 85.97138977050781 22.32881927490234 C 85.62889862060547 24.15642929077148 84.76556396484375 27.33032989501953 83.90702819824219 28.06623077392578 C 83.79288482666016 28.1640625 82.97750854492188 28.67670822143555 78.12185668945312 29.16176414489746 C 75.50071716308594 29.42360687255859 73.0113525390625 29.54352951049805 72.98651123046875 29.54470825195312 L 72.96800994873047 29.54558563232422 L 72.94955444335938 29.54738616943359 L 34.39594268798828 33.29444122314453 L 34.29568481445312 33.30418395996094 L 34.20155334472656 33.34003067016602 C 34.1810302734375 33.34779739379883 32.04180145263672 34.1456298828125 29.44248199462891 34.1456298828125 Z" stroke="none"/>
          <path d="M 82.76873779296875 -2.453361511230469 C 82.34752655029297 -2.399330139160156 80.75135040283203 -2.082027435302734 75.13557434082031 -0.2853469848632812 C 71.97873687744141 0.7246360778808594 68.99324035644531 1.741153717041016 68.55204010009766 1.891761779785156 L 45.5298957824707 11.86814880371094 L 30.39781188964844 19.91307830810547 L 16.5882568359375 28.46191215515137 C 19.10023498535156 29.64976692199707 22.98740386962891 31.4730396270752 25.68724060058594 32.66956329345703 C 26.77436065673828 33.15134048461914 28.0377197265625 33.3956298828125 29.44224548339844 33.3956298828125 C 31.89209747314453 33.3956298828125 33.91764068603516 32.6455078125 33.93463134765625 32.63914108276367 L 34.12288665771484 32.56744003295898 L 72.95094299316406 28.79554176330566 C 72.97410583496094 28.79444122314453 75.29667663574219 28.68268585205078 77.81128692626953 28.43870735168457 C 82.20003509521484 28.01289749145508 83.2572021484375 27.56988525390625 83.44349670410156 27.47266387939453 C 83.55477142333984 27.35480117797852 84.02220153808594 26.76727676391602 84.62297058105469 24.71033096313477 C 85.00547790527344 23.40069580078125 85.23201751708984 22.20238494873047 85.23417663574219 22.19089698791504 L 85.25066375732422 22.11398506164551 L 88.18203735351562 9.998407363891602 L 88.2574462890625 9.846975326538086 C 88.27674102783203 9.808208465576172 90.18132781982422 5.924419403076172 89.65477752685547 1.888362884521484 C 89.50445556640625 0.7360858917236328 88.76006317138672 -0.1902027130126953 87.37907409667969 -0.9434471130371094 C 86.06051635742188 -1.662624359130859 84.48113250732422 -2.036060333251953 83.5374755859375 -2.259181976318359 C 83.21951293945312 -2.334362030029297 82.97347259521484 -2.392536163330078 82.76873779296875 -2.453361511230469 M 82.87782287597656 -3.963821411132812 C 82.95192718505859 -3.963802337646484 83.00851440429688 -3.956684112548828 83.04551696777344 -3.941890716552734 C 84.00938415527344 -3.556636810302734 90.55038452148438 -2.841804504394531 91.14217376708984 1.694318771362305 C 91.73396301269531 6.230440139770508 89.60018920898438 10.51558494567871 89.60018920898438 10.51558494567871 L 86.70859527587891 22.46673011779785 C 86.70859527587891 22.46673011779785 85.77596282958984 27.45206260681152 84.39511871337891 28.63566398620605 C 83.0142822265625 29.81925201416016 73.02210998535156 30.29385185241699 73.02210998535156 30.29385185241699 L 34.46849822998047 34.04092025756836 C 34.46849060058594 34.04092025756836 29.41878509521484 35.96401214599609 25.07948303222656 34.04092025756836 C 20.74017333984375 32.11782073974609 13.45780944824219 28.63566398620605 13.45780944824219 28.63566398620605 L 29.65013885498047 18.61176300048828 L 44.87862014770508 10.51558494567871 L 68.01040649414062 0.4916858673095703 C 68.01040649414062 0.4916858673095703 81.02169799804688 -3.964248657226562 82.87782287597656 -3.963821411132812 Z" stroke="none"/>
        </g>
      </g>
      <g id="AFL_Left-6" data-name="AFL Left" transform="translate(-13.458 3.964)" fill="none" style="mix-blend-mode: overlay;isolation: isolate">
        <path d="M 29.44248199462891 34.1456298828125 C 29.44232177734375 34.1456298828125 29.44242286682129 34.1456298828125 29.44226455688477 34.1456298828125 C 27.93231964111328 34.14559555053711 26.56670761108398 33.87967300415039 25.38336372375488 33.35523986816406 C 22.17290878295898 31.93243408203125 17.29149436950684 29.62735557556152 15.02178192138672 28.54956245422363 L 30.02407646179199 19.26235961914062 L 45.20417022705078 11.19190502166748 L 68.2813720703125 1.191659927368164 C 73.23819732666016 -0.505101203918457 81.51413726806641 -3.179870843887329 82.85327911376953 -3.213496208190918 C 83.05243682861328 -3.144542694091797 83.32447814941406 -3.080219507217407 83.71005249023438 -2.989058971405029 C 84.69039916992188 -2.757258892059326 86.3311767578125 -2.369314432144165 87.73820495605469 -1.601870059967041 C 89.34474182128906 -0.7256144881248474 90.21492767333984 0.3843077123165131 90.39848327636719 1.791341066360474 C 90.95228576660156 6.036341190338135 88.94880676269531 10.14094066619873 88.92849731445312 10.18190765380859 L 88.89126586914062 10.25705242156982 L 88.8712158203125 10.33920764923096 L 85.97962951660156 22.29035186767578 L 85.97500610351562 22.30947494506836 L 85.97138977050781 22.32881927490234 C 85.62889862060547 24.15642929077148 84.76556396484375 27.33032989501953 83.90702819824219 28.06623077392578 C 83.79288482666016 28.1640625 82.97750854492188 28.67670822143555 78.12185668945312 29.16176414489746 C 75.50071716308594 29.42360687255859 73.0113525390625 29.54352951049805 72.98651123046875 29.54470825195312 L 72.96800994873047 29.54558563232422 L 72.94955444335938 29.54738616943359 L 34.39594268798828 33.29444122314453 L 34.29568481445312 33.30418395996094 L 34.20155334472656 33.34003067016602 C 34.1810302734375 33.34779739379883 32.04180145263672 34.1456298828125 29.44248199462891 34.1456298828125 Z" stroke="none"/>
        <path d="M 82.76873779296875 -2.453361511230469 C 82.34752655029297 -2.399330139160156 80.75135040283203 -2.082027435302734 75.13557434082031 -0.2853469848632812 C 71.97873687744141 0.7246360778808594 68.99324035644531 1.741153717041016 68.55204010009766 1.891761779785156 L 45.5298957824707 11.86814880371094 L 30.39781188964844 19.91307830810547 L 16.5882568359375 28.46191215515137 C 19.10023498535156 29.64976692199707 22.98740386962891 31.4730396270752 25.68724060058594 32.66956329345703 C 26.77436065673828 33.15134048461914 28.0377197265625 33.3956298828125 29.44224548339844 33.3956298828125 C 31.89209747314453 33.3956298828125 33.91764068603516 32.6455078125 33.93463134765625 32.63914108276367 L 34.12288665771484 32.56744003295898 L 72.95094299316406 28.79554176330566 C 72.97410583496094 28.79444122314453 75.29667663574219 28.68268585205078 77.81128692626953 28.43870735168457 C 82.20003509521484 28.01289749145508 83.2572021484375 27.56988525390625 83.44349670410156 27.47266387939453 C 83.55477142333984 27.35480117797852 84.02220153808594 26.76727676391602 84.62297058105469 24.71033096313477 C 85.00547790527344 23.40069580078125 85.23201751708984 22.20238494873047 85.23417663574219 22.19089698791504 L 85.25066375732422 22.11398506164551 L 88.18203735351562 9.998407363891602 L 88.2574462890625 9.846975326538086 C 88.27674102783203 9.808208465576172 90.18132781982422 5.924419403076172 89.65477752685547 1.888362884521484 C 89.50445556640625 0.7360858917236328 88.76006317138672 -0.1902027130126953 87.37907409667969 -0.9434471130371094 C 86.06051635742188 -1.662624359130859 84.48113250732422 -2.036060333251953 83.5374755859375 -2.259181976318359 C 83.21951293945312 -2.334362030029297 82.97347259521484 -2.392536163330078 82.76873779296875 -2.453361511230469 M 82.87782287597656 -3.963821411132812 C 82.95192718505859 -3.963802337646484 83.00851440429688 -3.956684112548828 83.04551696777344 -3.941890716552734 C 84.00938415527344 -3.556636810302734 90.55038452148438 -2.841804504394531 91.14217376708984 1.694318771362305 C 91.73396301269531 6.230440139770508 89.60018920898438 10.51558494567871 89.60018920898438 10.51558494567871 L 86.70859527587891 22.46673011779785 C 86.70859527587891 22.46673011779785 85.77596282958984 27.45206260681152 84.39511871337891 28.63566398620605 C 83.0142822265625 29.81925201416016 73.02210998535156 30.29385185241699 73.02210998535156 30.29385185241699 L 34.46849822998047 34.04092025756836 C 34.46849060058594 34.04092025756836 29.41878509521484 35.96401214599609 25.07948303222656 34.04092025756836 C 20.74017333984375 32.11782073974609 13.45780944824219 28.63566398620605 13.45780944824219 28.63566398620605 L 29.65013885498047 18.61176300048828 L 44.87862014770508 10.51558494567871 L 68.01040649414062 0.4916858673095703 C 68.01040649414062 0.4916858673095703 81.02169799804688 -3.964248657226562 82.87782287597656 -3.963821411132812 Z" stroke="none" fill="#33fc03"/>
      </g>
    </g>
  </g>
</svg>
