<svg xmlns="http://www.w3.org/2000/svg" xmlns:xlink="http://www.w3.org/1999/xlink" width="196.063" height="66.258" viewBox="0 0 196.063 66.258">
  <defs>
    <filter id="InputGroup_Middle_Placeholder" x="0" y="0" width="196.063" height="66.258" filterUnits="userSpaceOnUse">
      <feOffset dy="3" input="SourceAlpha"/>
      <feGaussianBlur stdDeviation="5" result="blur"/>
      <feFlood/>
      <feComposite operator="in" in2="blur"/>
    </filter>
    <filter id="InputGroup_Middle_Placeholder-2" x="0" y="0" width="196.063" height="66.258" filterUnits="userSpaceOnUse">
      <feOffset dy="4" input="SourceAlpha"/>
      <feGaussianBlur stdDeviation="5" result="blur-2"/>
      <feFlood result="color"/>
      <feComposite operator="out" in="SourceGraphic" in2="blur-2"/>
      <feComposite operator="in" in="color"/>
      <feComposite operator="in" in2="SourceGraphic"/>
    </filter>
  </defs>
  <g id="Component_114" data-name="Component 114" transform="translate(16 13)">
    <g data-type="innerShadowGroup">
      <g transform="matrix(1, 0, 0, 1, -16, -13)" filter="url(#InputGroup_Middle_Placeholder)">
        <path id="InputGroup_Middle_Placeholder-3" data-name="InputGroup/Middle/Placeholder" d="M0,0H164.063V34.258H0Z" transform="translate(16 13)" fill="#ff4500" stroke="rgba(4,252,193,0.49)" stroke-linecap="square" stroke-linejoin="bevel" stroke-width="2"/>
      </g>
      <path id="InputGroup_Middle_Placeholder-4" data-name="InputGroup/Middle/Placeholder" d="M0,0H164.063V34.258H0Z" fill="#ff4500"/>
      <g transform="matrix(1, 0, 0, 1, -16, -13)" filter="url(#InputGroup_Middle_Placeholder-2)">
        <path id="InputGroup_Middle_Placeholder-5" data-name="InputGroup/Middle/Placeholder" d="M0,0H164.063V34.258H0Z" transform="translate(16 13)" fill="#fff"/>
      </g>
      <path id="InputGroup_Middle_Placeholder-6" data-name="InputGroup/Middle/Placeholder" d="M0,0H164.063V34.258H0Z" fill="none" stroke="rgba(4,252,193,0.49)" stroke-linecap="square" stroke-linejoin="bevel" stroke-width="2"/>
    </g>
    <path id="Path_120447" data-name="Path 120447" d="M9.3,2a7.21,7.21,0,1,0,7.3,7.21A7.256,7.256,0,0,0,9.3,2ZM9.179,4.123a1.109,1.109,0,0,1,.834.311,1.081,1.081,0,0,1,.328.819,1.06,1.06,0,0,1-.313.838,1.089,1.089,0,0,1-.848.31,1.105,1.105,0,0,1-.842-.316,1.076,1.076,0,0,1-.319-.832,1.081,1.081,0,0,1,.328-.819,1.109,1.109,0,0,1,.834-.311Zm2.15,9.092a.4.4,0,0,1-.406.4H7.678a.4.4,0,0,1-.406-.4v-.8a.4.4,0,0,1,.406-.4H8.49v-3.2H7.678a.4.4,0,0,1-.406-.4v-.8a.4.4,0,0,1,.406-.4H9.706a.4.4,0,0,1,.406.4v4.406h.811a.4.4,0,0,1,.406.4Z" transform="translate(141.48 1.5)" stroke="#28865e" stroke-width="0.5"/>
    <g id="Checkbox" transform="translate(5.031 5.129)">
      <g id="Rectangle" fill="#fff" stroke="#b7b7b7" stroke-miterlimit="10" stroke-width="1">
        <rect width="14" height="13.48" rx="1" stroke="none"/>
        <rect x="0.5" y="0.5" width="13" height="12.48" rx="0.5" fill="none"/>
      </g>
    </g>
  </g>
</svg>
