<svg xmlns="http://www.w3.org/2000/svg" xmlns:xlink="http://www.w3.org/1999/xlink" width="60.689" height="64.102" viewBox="0 0 60.689 64.102">
  <defs>
    <filter id="Ellipse_226" x="0" y="0" width="60.689" height="64.102" filterUnits="userSpaceOnUse">
      <feOffset dx="2" dy="1" input="SourceAlpha"/>
      <feGaussianBlur stdDeviation="5" result="blur"/>
      <feFlood/>
      <feComposite operator="in" in2="blur"/>
    </filter>
    <filter id="Ellipse_226-2" x="0" y="0" width="60.689" height="64.102" filterUnits="userSpaceOnUse">
      <feOffset dy="4" input="SourceAlpha"/>
      <feGaussianBlur stdDeviation="5" result="blur-2"/>
      <feFlood flood-opacity="0.541" result="color"/>
      <feComposite operator="out" in="SourceGraphic" in2="blur-2"/>
      <feComposite operator="in" in="color"/>
      <feComposite operator="in" in2="SourceGraphic"/>
    </filter>
    <filter id="Path_124842" x="10.478" y="15" width="38.504" height="37.744" filterUnits="userSpaceOnUse">
      <feOffset dy="3" input="SourceAlpha"/>
      <feGaussianBlur stdDeviation="3" result="blur-3"/>
      <feFlood flood-opacity="0.969"/>
      <feComposite operator="in" in2="blur-3"/>
    </filter>
    <filter id="Path_124842-2" x="10.478" y="15" width="38.504" height="37.744" filterUnits="userSpaceOnUse">
      <feOffset dy="3" input="SourceAlpha"/>
      <feGaussianBlur stdDeviation="3" result="blur-4"/>
      <feFlood flood-opacity="0.82" result="color-2"/>
      <feComposite operator="out" in="SourceGraphic" in2="blur-4"/>
      <feComposite operator="in" in="color-2"/>
      <feComposite operator="in" in2="SourceGraphic"/>
    </filter>
  </defs>
  <g id="Glossary" transform="translate(12.516 14)">
    <g id="Glossary-2" data-name="Glossary" transform="translate(0 34.102) rotate(-90)">
      <g data-type="innerShadowGroup">
        <g transform="matrix(0, 1, -1, 0, 48.1, -12.52)" filter="url(#Ellipse_226)">
          <g id="Ellipse_226-3" data-name="Ellipse 226" transform="translate(13 48.1) rotate(-90)" fill="#ff4500" stroke-linecap="square">
            <path d="M 17.05078125 29.6892032623291 C 12.7437915802002 29.6892032623291 8.699531555175781 28.18424415588379 5.662991046905518 25.45155334472656 C 2.656021356582642 22.74547386169434 1.000001192092896 19.15608406066895 1.000001192092896 15.34460353851318 C 1.000001192092896 11.53312397003174 2.656021356582642 7.943733692169189 5.662991046905518 5.237653732299805 C 8.699531555175781 2.504963636398315 12.7437915802002 1.000003576278687 17.05078125 1.000003576278687 C 21.3577709197998 1.000003576278687 25.40203094482422 2.504963636398315 28.43857192993164 5.237653732299805 C 31.44554138183594 7.943733692169189 33.1015625 11.53312397003174 33.1015625 15.34460353851318 C 33.1015625 19.15608406066895 31.44554138183594 22.74547386169434 28.43857192993164 25.45155334472656 C 25.40203094482422 28.18424415588379 21.3577709197998 29.6892032623291 17.05078125 29.6892032623291 Z" stroke="none"/>
            <path d="M 17.05078125 2.000003814697266 C 8.751750946044922 2.000003814697266 2 7.986364364624023 2 15.34460353851318 C 2 22.70284271240234 8.751750946044922 28.6892032623291 17.05078125 28.6892032623291 C 25.34981155395508 28.6892032623291 32.1015625 22.70284271240234 32.1015625 15.34460353851318 C 32.1015625 7.986364364624023 25.34981155395508 2.000003814697266 17.05078125 2.000003814697266 M 17.05078125 3.814697265625e-06 C 26.46767044067383 3.814697265625e-06 34.1015625 6.870014190673828 34.1015625 15.34460353851318 C 34.1015625 23.81919288635254 26.46767044067383 30.6892032623291 17.05078125 30.6892032623291 C 7.633892059326172 30.6892032623291 0 23.81919288635254 0 15.34460353851318 C 0 6.870014190673828 7.633892059326172 3.814697265625e-06 17.05078125 3.814697265625e-06 Z" stroke="none" fill="#04fcc1"/>
          </g>
        </g>
        <g id="Ellipse_226-4" data-name="Ellipse 226" transform="translate(0 0.484)" fill="#ff4500">
          <path d="M 17.05078125 29.6892032623291 C 12.7437915802002 29.6892032623291 8.699531555175781 28.18424415588379 5.662991046905518 25.45155334472656 C 2.656021356582642 22.74547386169434 1.000001192092896 19.15608406066895 1.000001192092896 15.34460353851318 C 1.000001192092896 11.53312397003174 2.656021356582642 7.943733692169189 5.662991046905518 5.237653732299805 C 8.699531555175781 2.504963636398315 12.7437915802002 1.000003576278687 17.05078125 1.000003576278687 C 21.3577709197998 1.000003576278687 25.40203094482422 2.504963636398315 28.43857192993164 5.237653732299805 C 31.44554138183594 7.943733692169189 33.1015625 11.53312397003174 33.1015625 15.34460353851318 C 33.1015625 19.15608406066895 31.44554138183594 22.74547386169434 28.43857192993164 25.45155334472656 C 25.40203094482422 28.18424415588379 21.3577709197998 29.6892032623291 17.05078125 29.6892032623291 Z" stroke="none"/>
          <path d="M 17.05078125 2.000003814697266 C 8.751750946044922 2.000003814697266 2 7.986364364624023 2 15.34460353851318 C 2 22.70284271240234 8.751750946044922 28.6892032623291 17.05078125 28.6892032623291 C 25.34981155395508 28.6892032623291 32.1015625 22.70284271240234 32.1015625 15.34460353851318 C 32.1015625 7.986364364624023 25.34981155395508 2.000003814697266 17.05078125 2.000003814697266 M 17.05078125 3.814697265625e-06 C 26.46767044067383 3.814697265625e-06 34.1015625 6.870014190673828 34.1015625 15.34460353851318 C 34.1015625 23.81919288635254 26.46767044067383 30.6892032623291 17.05078125 30.6892032623291 C 7.633892059326172 30.6892032623291 0 23.81919288635254 0 15.34460353851318 C 0 6.870014190673828 7.633892059326172 3.814697265625e-06 17.05078125 3.814697265625e-06 Z" stroke="none"/>
        </g>
        <g transform="matrix(0, 1, -1, 0, 48.1, -12.52)" filter="url(#Ellipse_226-2)">
          <g id="Ellipse_226-5" data-name="Ellipse 226" transform="translate(13 48.1) rotate(-90)" fill="#fff">
            <path d="M 17.05078125 29.6892032623291 C 12.7437915802002 29.6892032623291 8.699531555175781 28.18424415588379 5.662991046905518 25.45155334472656 C 2.656021356582642 22.74547386169434 1.000001192092896 19.15608406066895 1.000001192092896 15.34460353851318 C 1.000001192092896 11.53312397003174 2.656021356582642 7.943733692169189 5.662991046905518 5.237653732299805 C 8.699531555175781 2.504963636398315 12.7437915802002 1.000003576278687 17.05078125 1.000003576278687 C 21.3577709197998 1.000003576278687 25.40203094482422 2.504963636398315 28.43857192993164 5.237653732299805 C 31.44554138183594 7.943733692169189 33.1015625 11.53312397003174 33.1015625 15.34460353851318 C 33.1015625 19.15608406066895 31.44554138183594 22.74547386169434 28.43857192993164 25.45155334472656 C 25.40203094482422 28.18424415588379 21.3577709197998 29.6892032623291 17.05078125 29.6892032623291 Z" stroke="none"/>
            <path d="M 17.05078125 2.000003814697266 C 8.751750946044922 2.000003814697266 2 7.986364364624023 2 15.34460353851318 C 2 22.70284271240234 8.751750946044922 28.6892032623291 17.05078125 28.6892032623291 C 25.34981155395508 28.6892032623291 32.1015625 22.70284271240234 32.1015625 15.34460353851318 C 32.1015625 7.986364364624023 25.34981155395508 2.000003814697266 17.05078125 2.000003814697266 M 17.05078125 3.814697265625e-06 C 26.46767044067383 3.814697265625e-06 34.1015625 6.870014190673828 34.1015625 15.34460353851318 C 34.1015625 23.81919288635254 26.46767044067383 30.6892032623291 17.05078125 30.6892032623291 C 7.633892059326172 30.6892032623291 0 23.81919288635254 0 15.34460353851318 C 0 6.870014190673828 7.633892059326172 3.814697265625e-06 17.05078125 3.814697265625e-06 Z" stroke="none"/>
          </g>
        </g>
        <g id="Ellipse_226-6" data-name="Ellipse 226" transform="translate(0 0.484)" fill="none" stroke-linecap="square">
          <path d="M 17.05078125 29.6892032623291 C 12.7437915802002 29.6892032623291 8.699531555175781 28.18424415588379 5.662991046905518 25.45155334472656 C 2.656021356582642 22.74547386169434 1.000001192092896 19.15608406066895 1.000001192092896 15.34460353851318 C 1.000001192092896 11.53312397003174 2.656021356582642 7.943733692169189 5.662991046905518 5.237653732299805 C 8.699531555175781 2.504963636398315 12.7437915802002 1.000003576278687 17.05078125 1.000003576278687 C 21.3577709197998 1.000003576278687 25.40203094482422 2.504963636398315 28.43857192993164 5.237653732299805 C 31.44554138183594 7.943733692169189 33.1015625 11.53312397003174 33.1015625 15.34460353851318 C 33.1015625 19.15608406066895 31.44554138183594 22.74547386169434 28.43857192993164 25.45155334472656 C 25.40203094482422 28.18424415588379 21.3577709197998 29.6892032623291 17.05078125 29.6892032623291 Z" stroke="none"/>
          <path d="M 17.05078125 2.000003814697266 C 8.751750946044922 2.000003814697266 2 7.986364364624023 2 15.34460353851318 C 2 22.70284271240234 8.751750946044922 28.6892032623291 17.05078125 28.6892032623291 C 25.34981155395508 28.6892032623291 32.1015625 22.70284271240234 32.1015625 15.34460353851318 C 32.1015625 7.986364364624023 25.34981155395508 2.000003814697266 17.05078125 2.000003814697266 M 17.05078125 3.814697265625e-06 C 26.46767044067383 3.814697265625e-06 34.1015625 6.870014190673828 34.1015625 15.34460353851318 C 34.1015625 23.81919288635254 26.46767044067383 30.6892032623291 17.05078125 30.6892032623291 C 7.633892059326172 30.6892032623291 0 23.81919288635254 0 15.34460353851318 C 0 6.870014190673828 7.633892059326172 3.814697265625e-06 17.05078125 3.814697265625e-06 Z" stroke="none" fill="#04fcc1"/>
        </g>
      </g>
      <g id="local_library" transform="translate(3.196 0)">
        <path id="Path_124841" data-name="Path 124841" d="M0,0H28.1V31.032H0Z" transform="translate(0)" fill="none"/>
        <g data-type="innerShadowGroup">
          <g transform="matrix(0, 1, -1, 0, 44.91, -12.52)" filter="url(#Path_124842)">
            <g id="Path_124842-3" data-name="Path 124842" transform="translate(19.48 40.74) rotate(-90)" fill="#f60">
              <path d="M 9.872965812683105 19.73978996276855 C 7.261688709259033 16.8192195892334 3.967924118041992 15.15744590759277 0.4999956786632538 15.01147651672363 L 0.4999956786632538 0.5115241408348083 C 3.839541673660278 0.6656059622764587 7.014479637145996 2.360355854034424 9.488375663757324 5.323056697845459 L 9.872165679931641 5.782686710357666 L 10.25595569610596 5.323056697845459 C 12.72985172271729 2.360355854034424 15.90478992462158 0.6656059622764587 19.24433517456055 0.5115241408348083 L 19.24433517456055 15.01154232025146 C 15.78707313537598 15.15789222717285 12.49422836303711 16.81936454772949 9.872965812683105 19.73978996276855 Z" stroke="none"/>
              <path d="M 0.9999961853027344 1.048530578613281 L 0.9999961853027344 14.54131507873535 C 4.265179634094238 14.8055248260498 7.355552673339844 16.35941314697266 9.873637199401855 19.00325393676758 C 12.39952087402344 16.36033058166504 15.48888397216797 14.80639457702637 18.74433517456055 14.54154968261719 L 18.74433517456055 1.048530578613281 C 15.73836517333984 1.340991973876953 12.89168548583984 2.946647644042969 10.63975524902344 5.643527030944824 L 9.872165679931641 6.562787055969238 L 9.104576110839844 5.643527030944824 C 6.852646827697754 2.946647644042969 4.005966186523438 1.340991973876953 0.9999961853027344 1.048530578613281 M -3.814697265625e-06 -3.814697265625e-06 C 3.817235946655273 -3.814697265625e-06 7.283465385437012 1.902387619018555 9.872165679931641 5.002586364746094 C 12.46086502075195 1.902387619018555 15.92709541320801 -3.814697265625e-06 19.74433517456055 -3.814697265625e-06 L 19.74433517456055 15.50096702575684 C 15.92709541320801 15.50096702575684 12.46086502075195 17.41744613647461 9.872165679931641 20.5035572052002 C 7.283465385437012 17.40335655212402 3.817235946655273 15.50096702575684 -3.814697265625e-06 15.50096702575684 L -3.814697265625e-06 -3.814697265625e-06 Z" stroke="none" fill="#04fcc1"/>
            </g>
          </g>
          <g id="Path_124842-4" data-name="Path 124842" transform="translate(4.162 6.962)" fill="#f60">
            <path d="M 9.872965812683105 19.73978996276855 C 7.261688709259033 16.8192195892334 3.967924118041992 15.15744590759277 0.4999956786632538 15.01147651672363 L 0.4999956786632538 0.5115241408348083 C 3.839541673660278 0.6656059622764587 7.014479637145996 2.360355854034424 9.488375663757324 5.323056697845459 L 9.872165679931641 5.782686710357666 L 10.25595569610596 5.323056697845459 C 12.72985172271729 2.360355854034424 15.90478992462158 0.6656059622764587 19.24433517456055 0.5115241408348083 L 19.24433517456055 15.01154232025146 C 15.78707313537598 15.15789222717285 12.49422836303711 16.81936454772949 9.872965812683105 19.73978996276855 Z" stroke="none"/>
            <path d="M 0.9999961853027344 1.048530578613281 L 0.9999961853027344 14.54131507873535 C 4.265179634094238 14.8055248260498 7.355552673339844 16.35941314697266 9.873637199401855 19.00325393676758 C 12.39952087402344 16.36033058166504 15.48888397216797 14.80639457702637 18.74433517456055 14.54154968261719 L 18.74433517456055 1.048530578613281 C 15.73836517333984 1.340991973876953 12.89168548583984 2.946647644042969 10.63975524902344 5.643527030944824 L 9.872165679931641 6.562787055969238 L 9.104576110839844 5.643527030944824 C 6.852646827697754 2.946647644042969 4.005966186523438 1.340991973876953 0.9999961853027344 1.048530578613281 M -3.814697265625e-06 -3.814697265625e-06 C 3.817235946655273 -3.814697265625e-06 7.283465385437012 1.902387619018555 9.872165679931641 5.002586364746094 C 12.46086502075195 1.902387619018555 15.92709541320801 -3.814697265625e-06 19.74433517456055 -3.814697265625e-06 L 19.74433517456055 15.50096702575684 C 15.92709541320801 15.50096702575684 12.46086502075195 17.41744613647461 9.872165679931641 20.5035572052002 C 7.283465385437012 17.40335655212402 3.817235946655273 15.50096702575684 -3.814697265625e-06 15.50096702575684 L -3.814697265625e-06 -3.814697265625e-06 Z" stroke="none"/>
          </g>
          <g transform="matrix(0, 1, -1, 0, 44.91, -12.52)" filter="url(#Path_124842-2)">
            <g id="Path_124842-5" data-name="Path 124842" transform="translate(19.48 40.74) rotate(-90)" fill="#fff">
              <path d="M 9.872965812683105 19.73978996276855 C 7.261688709259033 16.8192195892334 3.967924118041992 15.15744590759277 0.4999956786632538 15.01147651672363 L 0.4999956786632538 0.5115241408348083 C 3.839541673660278 0.6656059622764587 7.014479637145996 2.360355854034424 9.488375663757324 5.323056697845459 L 9.872165679931641 5.782686710357666 L 10.25595569610596 5.323056697845459 C 12.72985172271729 2.360355854034424 15.90478992462158 0.6656059622764587 19.24433517456055 0.5115241408348083 L 19.24433517456055 15.01154232025146 C 15.78707313537598 15.15789222717285 12.49422836303711 16.81936454772949 9.872965812683105 19.73978996276855 Z" stroke="none"/>
              <path d="M 0.9999961853027344 1.048530578613281 L 0.9999961853027344 14.54131507873535 C 4.265179634094238 14.8055248260498 7.355552673339844 16.35941314697266 9.873637199401855 19.00325393676758 C 12.39952087402344 16.36033058166504 15.48888397216797 14.80639457702637 18.74433517456055 14.54154968261719 L 18.74433517456055 1.048530578613281 C 15.73836517333984 1.340991973876953 12.89168548583984 2.946647644042969 10.63975524902344 5.643527030944824 L 9.872165679931641 6.562787055969238 L 9.104576110839844 5.643527030944824 C 6.852646827697754 2.946647644042969 4.005966186523438 1.340991973876953 0.9999961853027344 1.048530578613281 M -3.814697265625e-06 -3.814697265625e-06 C 3.817235946655273 -3.814697265625e-06 7.283465385437012 1.902387619018555 9.872165679931641 5.002586364746094 C 12.46086502075195 1.902387619018555 15.92709541320801 -3.814697265625e-06 19.74433517456055 -3.814697265625e-06 L 19.74433517456055 15.50096702575684 C 15.92709541320801 15.50096702575684 12.46086502075195 17.41744613647461 9.872165679931641 20.5035572052002 C 7.283465385437012 17.40335655212402 3.817235946655273 15.50096702575684 -3.814697265625e-06 15.50096702575684 L -3.814697265625e-06 -3.814697265625e-06 Z" stroke="none"/>
            </g>
          </g>
          <g id="Path_124842-6" data-name="Path 124842" transform="translate(4.162 6.962)" fill="none">
            <path d="M 9.872965812683105 19.73978996276855 C 7.261688709259033 16.8192195892334 3.967924118041992 15.15744590759277 0.4999956786632538 15.01147651672363 L 0.4999956786632538 0.5115241408348083 C 3.839541673660278 0.6656059622764587 7.014479637145996 2.360355854034424 9.488375663757324 5.323056697845459 L 9.872165679931641 5.782686710357666 L 10.25595569610596 5.323056697845459 C 12.72985172271729 2.360355854034424 15.90478992462158 0.6656059622764587 19.24433517456055 0.5115241408348083 L 19.24433517456055 15.01154232025146 C 15.78707313537598 15.15789222717285 12.49422836303711 16.81936454772949 9.872965812683105 19.73978996276855 Z" stroke="none"/>
            <path d="M 0.9999961853027344 1.048530578613281 L 0.9999961853027344 14.54131507873535 C 4.265179634094238 14.8055248260498 7.355552673339844 16.35941314697266 9.873637199401855 19.00325393676758 C 12.39952087402344 16.36033058166504 15.48888397216797 14.80639457702637 18.74433517456055 14.54154968261719 L 18.74433517456055 1.048530578613281 C 15.73836517333984 1.340991973876953 12.89168548583984 2.946647644042969 10.63975524902344 5.643527030944824 L 9.872165679931641 6.562787055969238 L 9.104576110839844 5.643527030944824 C 6.852646827697754 2.946647644042969 4.005966186523438 1.340991973876953 0.9999961853027344 1.048530578613281 M -3.814697265625e-06 -3.814697265625e-06 C 3.817235946655273 -3.814697265625e-06 7.283465385437012 1.902387619018555 9.872165679931641 5.002586364746094 C 12.46086502075195 1.902387619018555 15.92709541320801 -3.814697265625e-06 19.74433517456055 -3.814697265625e-06 L 19.74433517456055 15.50096702575684 C 15.92709541320801 15.50096702575684 12.46086502075195 17.41744613647461 9.872165679931641 20.5035572052002 C 7.283465385437012 17.40335655212402 3.817235946655273 15.50096702575684 -3.814697265625e-06 15.50096702575684 L -3.814697265625e-06 -3.814697265625e-06 Z" stroke="none" fill="#04fcc1"/>
          </g>
        </g>
        <line id="Line_11" data-name="Line 11" y2="14.223" transform="translate(14.049 12.284)" fill="none" stroke="#04fcc1" stroke-width="1"/>
        <path id="Path_124846" data-name="Path 124846" d="M0,0C3.672.127,4.132.254,8.723,4.817" transform="translate(5.197 12.54)" fill="none" stroke="#04fcc1" stroke-width="1"/>
        <path id="Path_124845" data-name="Path 124845" d="M0,.008s5.968-.38,8.723,4.057" transform="translate(5.197 17.603)" fill="none" stroke="#03f6bc" stroke-width="1"/>
        <path id="Path_124844" data-name="Path 124844" d="M0,4.936A15.652,15.652,0,0,1,5.5.886,9.5,9.5,0,0,1,9.3,0" transform="translate(13.92 12.666)" fill="none" stroke="#04fcc1" stroke-width="1"/>
        <path id="Path_124843" data-name="Path 124843" d="M0,4.439C4.017-.251,8.723,0,8.723,0" transform="translate(14.266 17.482)" fill="none" stroke="#03f6bc" stroke-width="1"/>
      </g>
    </g>
  </g>
</svg>
