<svg id="Row_B" data-name="Row B" xmlns="http://www.w3.org/2000/svg" width="762" height="27" viewBox="0 0 762 27">
  <g id="_7" data-name="7" transform="translate(0 -0.339)">
    <g id="B7" transform="translate(644 0.339)" fill="#212428" stroke="#31373e" stroke-width="1">
      <rect width="118" height="27" stroke="none"/>
      <rect x="0.5" y="0.5" width="117" height="26" fill="none"/>
    </g>
    <text id="_12_12_2021" data-name="12/12/2021" transform="translate(659 18.339)" fill="aqua" font-size="14" font-family="SourceCodePro-Regular, Source Code Pro" letter-spacing="0.01em"><tspan x="0" y="0">12/12/2021</tspan></text>
  </g>
  <g id="_6" data-name="6" transform="translate(0 -0.339)">
    <g id="B6" transform="translate(524 0.339)" fill="#212428" stroke="#31373e" stroke-width="1">
      <rect width="120" height="27" stroke="none"/>
      <rect x="0.5" y="0.5" width="119" height="26" fill="none"/>
    </g>
    <text id="ROGUE" transform="translate(561 18.339)" fill="aqua" font-size="14" font-family="SourceCodePro-Regular, Source Code Pro" letter-spacing="0.01em"><tspan x="0" y="0">ROGUE</tspan></text>
  </g>
  <g id="_5" data-name="5" transform="translate(0 -0.339)">
    <g id="B5" transform="translate(407 0.339)" fill="#212428" stroke="#31373e" stroke-width="1">
      <rect width="118" height="27" stroke="none"/>
      <rect x="0.5" y="0.5" width="117" height="26" fill="none"/>
    </g>
    <text id="NISSAN" transform="translate(451 18.339)" fill="aqua" font-size="14" font-family="SourceCodePro-Regular, Source Code Pro" letter-spacing="0.01em"><tspan x="0" y="0">NISSAN</tspan></text>
  </g>
  <g id="_4" data-name="4" transform="translate(0 -0.339)">
    <g id="B4" transform="translate(288 0.339)" fill="#212428" stroke="#31373e" stroke-width="1">
      <rect width="119" height="27" stroke="none"/>
      <rect x="0.5" y="0.5" width="118" height="26" fill="none"/>
    </g>
    <text id="_2021" data-name="2021" transform="translate(332 18.339)" fill="aqua" font-size="14" font-family="SourceCodePro-Regular, Source Code Pro" letter-spacing="0.01em"><tspan x="0" y="0">2021</tspan></text>
  </g>
  <g id="_3" data-name="3" transform="translate(0 -0.339)">
    <g id="B3" transform="translate(169 0.339)" fill="#212428" stroke="#31373e" stroke-width="1">
      <rect width="121" height="27" stroke="none"/>
      <rect x="0.5" y="0.5" width="120" height="26" fill="none"/>
    </g>
    <text id="J2389X4T800112" transform="translate(175 18.339)" fill="aqua" font-size="13" font-family="SourceCodePro-Regular, Source Code Pro" letter-spacing="0.01em"><tspan x="0" y="0">J2389X4T800112</tspan></text>
  </g>
  <g id="_2" data-name="2" transform="translate(0 -0.339)">
    <g id="B2" transform="translate(52 0.339)" fill="#212428" stroke="#31373e" stroke-width="1">
      <rect width="117" height="27" stroke="none"/>
      <rect x="0.5" y="0.5" width="116" height="26" fill="none"/>
    </g>
    <text id="John_S" data-name="John S" transform="translate(87 18.339)" fill="aqua" font-size="14" font-family="SourceCodePro-Regular, Source Code Pro" letter-spacing="0.01em"><tspan x="0" y="0">John S</tspan></text>
  </g>
  <g id="_1" data-name="1" transform="translate(0 -0.339)">
    <g id="B1" transform="translate(0 0.339)" fill="#212428" stroke="#31373e" stroke-width="1">
      <rect width="52" height="27" stroke="none"/>
      <rect x="0.5" y="0.5" width="51" height="26" fill="none"/>
    </g>
    <text id="T1389" transform="translate(2 4.339)" fill="aqua" font-size="14" font-family="SourceCodePro-Regular, Source Code Pro" letter-spacing="0.01em"><tspan x="0" y="14">T1389</tspan></text>
  </g>
</svg>
