<svg xmlns="http://www.w3.org/2000/svg" width="371.459" height="40.04" viewBox="0 0 371.459 40.04">
  <g id="Component_121" data-name="Component 121" transform="translate(0.5 0.5)">
    <path id="Grille_Shutter_Park_Sensors" data-name="Grille Shutter/ Park Sensors" d="M4.584,15.32,2.323,3.333h29.93s4.736,10.045,6.675,11.986a12.277,12.277,0,0,0,4.63,3.233c3.445,1.83,7.947,1.4,18.518,1.615,14.527.293,31.975,0,31.975,0L87.7,9.079H268.46L285.577,10.3l-5.43,9.518s29.827.936,45.816,0c5.868-.344,11.209-5.72,13.222-9.518A61.864,61.864,0,0,0,343.8-1.081l28.984-2.113s-1.247,9.7-2.584,18.3c-1.076,3.875-1.42,8.658-2.476,10.55-3.122,5.6-5.55,8.053-10.013,9.151-6.619,1.63-15.523.967-24.978.861-8.048-.089-15.8-.043-18.3-.861-5.275-1.723-5.719-1.83-14.427-1.83-27.059-.474-76.939-1.561-111.18-2.692-46.06.229-97.528,2.468-120.5,2.8-9.366.861-1.933.239-10.874,1.723s-22.479.861-25.192.753C15.4,36.1,16.1,34.164,14.7,33.695a13.286,13.286,0,0,1-7.429-6.636C5.286,22.65,4.584,15.32,4.584,15.32Z" transform="translate(-2.323 3.194)" fill="#65ff00" stroke="#0f2" stroke-linecap="round" stroke-linejoin="round" stroke-width="1" opacity="0.48" style="mix-blend-mode: hard-light;isolation: isolate"/>
  </g>
</svg>
