<svg id="Component_94" data-name="Component 94" xmlns="http://www.w3.org/2000/svg" width="27.743" height="25.815" viewBox="0 0 27.743 25.815">
  <g id="Menu_closed" data-name="Menu closed" transform="translate(-19 106)">
    <g id="_Color" data-name=" ↳Color" transform="translate(19 -106)" fill="#d83a00">
      <path d="M 27.24325942993164 25.31469917297363 L 0.4999987483024597 25.31469917297363 L 0.4999987483024597 19.40180015563965 L 27.24325942993164 19.40180015563965 L 27.24325942993164 25.31469917297363 Z M 27.24325942993164 16.13739967346191 L 0.4999987483024597 16.13739967346191 L 0.4999987483024597 10.06789970397949 L 27.24325942993164 10.06789970397949 L 27.24325942993164 16.13739967346191 Z M 27.24325942993164 6.793599605560303 L 0.4999987483024597 6.793599605560303 L 0.4999987483024597 0.4999995827674866 L 27.24325942993164 0.4999995827674866 L 27.24325942993164 6.793599605560303 Z" stroke="none"/>
      <path d="M 26.74325942993164 24.81469917297363 L 26.74325942993164 19.90180015563965 L 0.9999987483024597 19.90180015563965 L 0.9999987483024597 24.81469917297363 L 26.74325942993164 24.81469917297363 M 26.74325942993164 15.63739967346191 L 26.74325942993164 10.56789970397949 L 0.9999987483024597 10.56789970397949 L 0.9999987483024597 15.63739967346191 L 26.74325942993164 15.63739967346191 M 26.74325942993164 6.293599605560303 L 26.74325942993164 0.9999995827674866 L 0.9999987483024597 0.9999995827674866 L 0.9999987483024597 6.293599605560303 L 26.74325942993164 6.293599605560303 M 27.74325942993164 25.81469917297363 L -1.238708478012995e-06 25.81469917297363 L -1.238708478012995e-06 18.90180015563965 L 27.74325942993164 18.90180015563965 L 27.74325942993164 25.81469917297363 Z M 27.74325942993164 16.63739967346191 L -1.238708478012995e-06 16.63739967346191 L -1.238708478012995e-06 9.567899703979492 L 27.74325942993164 9.567899703979492 L 27.74325942993164 16.63739967346191 Z M 27.74325942993164 7.293599605560303 L -1.238708478012995e-06 7.293599605560303 L -1.238708478012995e-06 -4.135131916882528e-07 L 27.74325942993164 -4.135131916882528e-07 L 27.74325942993164 7.293599605560303 Z" stroke="none" fill="#07f3b9"/>
    </g>
  </g>
</svg>
