<svg xmlns="http://www.w3.org/2000/svg" xmlns:xlink="http://www.w3.org/1999/xlink" width="95.788" height="56.86" viewBox="0 0 95.788 56.86">
  <defs>
    <filter id="AFL_Right" x="0" y="0" width="95.788" height="56.86" filterUnits="userSpaceOnUse">
      <feOffset dy="3" input="SourceAlpha"/>
      <feGaussianBlur stdDeviation="3" result="blur"/>
      <feFlood flood-opacity="0.988"/>
      <feComposite operator="in" in2="blur"/>
    </filter>
    <filter id="AFL_Right-2" x="0" y="0" width="95.788" height="56.86" filterUnits="userSpaceOnUse">
      <feOffset dy="3" input="SourceAlpha"/>
      <feGaussianBlur stdDeviation="3" result="blur-2"/>
      <feFlood result="color"/>
      <feComposite operator="out" in="SourceGraphic" in2="blur-2"/>
      <feComposite operator="in" in="color"/>
      <feComposite operator="in" in2="SourceGraphic"/>
    </filter>
  </defs>
  <g id="RS_Adaptive_Front_Lighting" data-name="RS Adaptive Front Lighting" transform="translate(9 6)">
    <g data-type="innerShadowGroup">
      <g transform="matrix(1, 0, 0, 1, -9, -6)" filter="url(#AFL_Right)" style="mix-blend-mode: overlay;isolation: isolate">
        <g id="AFL_Right-3" data-name="AFL Right" transform="translate(-4.46 9.96)" fill="#05f">
          <path d="M 75.26161193847656 34.14572525024414 C 72.66205596923828 34.14572525024414 70.52280426025391 33.34788131713867 70.50149536132812 33.33982467651367 L 70.40808868408203 33.30449295043945 L 70.30789947509766 33.29453659057617 L 31.75419235229492 29.54747009277344 L 31.73574638366699 29.54566955566406 L 31.71723556518555 29.54479217529297 C 31.69239234924316 29.54361534118652 29.20302581787109 29.42369270324707 26.58188056945801 29.1618480682373 C 21.7262134552002 28.67679214477539 20.91083526611328 28.16414833068848 20.79669189453125 28.06630325317383 C 19.98258018493652 27.36849212646484 19.09941482543945 24.29114723205566 18.73232460021973 22.32888221740723 L 18.72870254516602 22.30953788757324 L 18.72408103942871 22.29041481018066 L 15.83248043060303 10.33924770355225 L 15.81259155273438 10.25703716278076 L 15.77488040924072 10.18131446838379 C 15.75489139556885 10.14098167419434 13.75141429901123 6.036370277404785 14.30522537231445 1.791359186172485 C 14.4887809753418 0.3843258917331696 15.35896968841553 -0.7256074547767639 16.96551322937012 -1.601874113082886 C 18.3725471496582 -2.36931848526001 20.01333618164062 -2.757262945175171 20.9936695098877 -2.989063024520874 C 21.37924385070801 -3.080223560333252 21.65128326416016 -3.144546985626221 21.85044097900391 -3.213500261306763 C 23.18971252441406 -3.179874658584595 31.46560859680176 -0.5050946474075317 36.42239379882812 1.191677451133728 L 59.49952697753906 11.19189643859863 L 74.67990875244141 19.26248931884766 L 89.68212127685547 28.54964828491211 C 87.41233825683594 29.62747383117676 82.53075408935547 31.9326229095459 79.32051086425781 33.3553352355957 C 78.13710021972656 33.87980270385742 76.77149200439453 34.14572525024414 75.26161193847656 34.14572525024414 Z" stroke="none"/>
          <path d="M 21.93486022949219 -2.453327178955078 C 21.73014831542969 -2.392513275146484 21.48416137695312 -2.3343505859375 21.16624450683594 -2.259185791015625 C 20.22259521484375 -2.036064147949219 18.6431884765625 -1.662628173828125 17.32464599609375 -0.9434394836425781 C 15.94364929199219 -0.1901969909667969 15.19924926757812 0.7361030578613281 15.04892730712891 1.888381958007812 C 14.52619934082031 5.895048141479492 16.42824554443359 9.810482025146484 16.44625854492188 9.847015380859375 L 16.52165985107422 9.998447418212891 L 19.46944427490234 22.19050407409668 C 19.47169494628906 22.20245933532715 19.69823455810547 23.40077018737793 20.08073425292969 24.71040344238281 C 20.68154144287109 26.76749229431152 21.14898681640625 27.35494804382324 21.26022338867188 27.47275352478027 C 21.44633483886719 27.56987190246582 22.50186920166016 28.01222610473633 26.8814697265625 28.43773651123047 C 29.39668273925781 28.68210411071777 31.72959136962891 28.79453659057617 31.75286102294922 28.7956371307373 L 31.82673645019531 28.80098152160645 L 70.57777404785156 32.56632614135742 L 70.76602172851562 32.63802719116211 C 70.78620147705078 32.64560317993164 72.81175994873047 33.39572525024414 75.26161193847656 33.39572525024414 C 76.66614532470703 33.39572525024414 77.92951202392578 33.15143585205078 79.01663208007812 32.66965866088867 C 81.71637725830078 31.47318267822266 85.60356140136719 29.64989280700684 88.11563873291016 28.46198654174805 L 74.30604553222656 19.91312789916992 L 59.17391586303711 11.86818885803223 L 36.15170288085938 1.891769409179688 C 35.71048736572266 1.741170883178711 32.72487640380859 0.7247352600097656 29.56793975830078 -0.2852191925048828 C 23.95265960693359 -2.081642150878906 22.35628509521484 -2.399192810058594 21.93486022949219 -2.453327178955078 M 21.82589721679688 -3.963825225830078 C 23.68202209472656 -3.963825225830078 36.693359375 0.4917030334472656 36.693359375 0.4917030334472656 L 59.82519149780273 10.515625 L 75.0537109375 18.61181449890137 L 91.24609375 28.6357364654541 C 91.24609375 28.6357364654541 83.96369934082031 32.11791610717773 79.6243896484375 34.041015625 C 75.28508758544922 35.96411514282227 70.2353515625 34.041015625 70.2353515625 34.041015625 L 31.68163299560547 30.29394721984863 C 31.68163299560547 30.29394721984863 21.68943786621094 29.81933784484863 20.30859375 28.6357364654541 C 18.927734375 27.4521484375 17.9951171875 22.46679306030273 17.9951171875 22.46679306030273 L 15.103515625 10.515625 C 15.103515625 10.515625 12.96973419189453 6.230470657348633 13.5615234375 1.694337844848633 C 14.15331268310547 -2.841796875 20.6943359375 -3.556640625 21.658203125 -3.94189453125 C 21.69520568847656 -3.956687927246094 21.75180053710938 -3.963825225830078 21.82589721679688 -3.963825225830078 Z" stroke="none" fill="#33fc03"/>
        </g>
      </g>
      <g id="AFL_Right-4" data-name="AFL Right" transform="translate(-13.458 3.964)" fill="#05f" style="mix-blend-mode: overlay;isolation: isolate">
        <path d="M 75.26161193847656 34.14572525024414 C 72.66205596923828 34.14572525024414 70.52280426025391 33.34788131713867 70.50149536132812 33.33982467651367 L 70.40808868408203 33.30449295043945 L 70.30789947509766 33.29453659057617 L 31.75419235229492 29.54747009277344 L 31.73574638366699 29.54566955566406 L 31.71723556518555 29.54479217529297 C 31.69239234924316 29.54361534118652 29.20302581787109 29.42369270324707 26.58188056945801 29.1618480682373 C 21.7262134552002 28.67679214477539 20.91083526611328 28.16414833068848 20.79669189453125 28.06630325317383 C 19.98258018493652 27.36849212646484 19.09941482543945 24.29114723205566 18.73232460021973 22.32888221740723 L 18.72870254516602 22.30953788757324 L 18.72408103942871 22.29041481018066 L 15.83248043060303 10.33924770355225 L 15.81259155273438 10.25703716278076 L 15.77488040924072 10.18131446838379 C 15.75489139556885 10.14098167419434 13.75141429901123 6.036370277404785 14.30522537231445 1.791359186172485 C 14.4887809753418 0.3843258917331696 15.35896968841553 -0.7256074547767639 16.96551322937012 -1.601874113082886 C 18.3725471496582 -2.36931848526001 20.01333618164062 -2.757262945175171 20.9936695098877 -2.989063024520874 C 21.37924385070801 -3.080223560333252 21.65128326416016 -3.144546985626221 21.85044097900391 -3.213500261306763 C 23.18971252441406 -3.179874658584595 31.46560859680176 -0.5050946474075317 36.42239379882812 1.191677451133728 L 59.49952697753906 11.19189643859863 L 74.67990875244141 19.26248931884766 L 89.68212127685547 28.54964828491211 C 87.41233825683594 29.62747383117676 82.53075408935547 31.9326229095459 79.32051086425781 33.3553352355957 C 78.13710021972656 33.87980270385742 76.77149200439453 34.14572525024414 75.26161193847656 34.14572525024414 Z" stroke="none"/>
        <path d="M 21.93486022949219 -2.453327178955078 C 21.73014831542969 -2.392513275146484 21.48416137695312 -2.3343505859375 21.16624450683594 -2.259185791015625 C 20.22259521484375 -2.036064147949219 18.6431884765625 -1.662628173828125 17.32464599609375 -0.9434394836425781 C 15.94364929199219 -0.1901969909667969 15.19924926757812 0.7361030578613281 15.04892730712891 1.888381958007812 C 14.52619934082031 5.895048141479492 16.42824554443359 9.810482025146484 16.44625854492188 9.847015380859375 L 16.52165985107422 9.998447418212891 L 19.46944427490234 22.19050407409668 C 19.47169494628906 22.20245933532715 19.69823455810547 23.40077018737793 20.08073425292969 24.71040344238281 C 20.68154144287109 26.76749229431152 21.14898681640625 27.35494804382324 21.26022338867188 27.47275352478027 C 21.44633483886719 27.56987190246582 22.50186920166016 28.01222610473633 26.8814697265625 28.43773651123047 C 29.39668273925781 28.68210411071777 31.72959136962891 28.79453659057617 31.75286102294922 28.7956371307373 L 31.82673645019531 28.80098152160645 L 70.57777404785156 32.56632614135742 L 70.76602172851562 32.63802719116211 C 70.78620147705078 32.64560317993164 72.81175994873047 33.39572525024414 75.26161193847656 33.39572525024414 C 76.66614532470703 33.39572525024414 77.92951202392578 33.15143585205078 79.01663208007812 32.66965866088867 C 81.71637725830078 31.47318267822266 85.60356140136719 29.64989280700684 88.11563873291016 28.46198654174805 L 74.30604553222656 19.91312789916992 L 59.17391586303711 11.86818885803223 L 36.15170288085938 1.891769409179688 C 35.71048736572266 1.741170883178711 32.72487640380859 0.7247352600097656 29.56793975830078 -0.2852191925048828 C 23.95265960693359 -2.081642150878906 22.35628509521484 -2.399192810058594 21.93486022949219 -2.453327178955078 M 21.82589721679688 -3.963825225830078 C 23.68202209472656 -3.963825225830078 36.693359375 0.4917030334472656 36.693359375 0.4917030334472656 L 59.82519149780273 10.515625 L 75.0537109375 18.61181449890137 L 91.24609375 28.6357364654541 C 91.24609375 28.6357364654541 83.96369934082031 32.11791610717773 79.6243896484375 34.041015625 C 75.28508758544922 35.96411514282227 70.2353515625 34.041015625 70.2353515625 34.041015625 L 31.68163299560547 30.29394721984863 C 31.68163299560547 30.29394721984863 21.68943786621094 29.81933784484863 20.30859375 28.6357364654541 C 18.927734375 27.4521484375 17.9951171875 22.46679306030273 17.9951171875 22.46679306030273 L 15.103515625 10.515625 C 15.103515625 10.515625 12.96973419189453 6.230470657348633 13.5615234375 1.694337844848633 C 14.15331268310547 -2.841796875 20.6943359375 -3.556640625 21.658203125 -3.94189453125 C 21.69520568847656 -3.956687927246094 21.75180053710938 -3.963825225830078 21.82589721679688 -3.963825225830078 Z" stroke="none"/>
      </g>
      <g transform="matrix(1, 0, 0, 1, -9, -6)" filter="url(#AFL_Right-2)" style="mix-blend-mode: overlay;isolation: isolate">
        <g id="AFL_Right-5" data-name="AFL Right" transform="translate(-4.46 9.96)" fill="#fff">
          <path d="M 75.26161193847656 34.14572525024414 C 72.66205596923828 34.14572525024414 70.52280426025391 33.34788131713867 70.50149536132812 33.33982467651367 L 70.40808868408203 33.30449295043945 L 70.30789947509766 33.29453659057617 L 31.75419235229492 29.54747009277344 L 31.73574638366699 29.54566955566406 L 31.71723556518555 29.54479217529297 C 31.69239234924316 29.54361534118652 29.20302581787109 29.42369270324707 26.58188056945801 29.1618480682373 C 21.7262134552002 28.67679214477539 20.91083526611328 28.16414833068848 20.79669189453125 28.06630325317383 C 19.98258018493652 27.36849212646484 19.09941482543945 24.29114723205566 18.73232460021973 22.32888221740723 L 18.72870254516602 22.30953788757324 L 18.72408103942871 22.29041481018066 L 15.83248043060303 10.33924770355225 L 15.81259155273438 10.25703716278076 L 15.77488040924072 10.18131446838379 C 15.75489139556885 10.14098167419434 13.75141429901123 6.036370277404785 14.30522537231445 1.791359186172485 C 14.4887809753418 0.3843258917331696 15.35896968841553 -0.7256074547767639 16.96551322937012 -1.601874113082886 C 18.3725471496582 -2.36931848526001 20.01333618164062 -2.757262945175171 20.9936695098877 -2.989063024520874 C 21.37924385070801 -3.080223560333252 21.65128326416016 -3.144546985626221 21.85044097900391 -3.213500261306763 C 23.18971252441406 -3.179874658584595 31.46560859680176 -0.5050946474075317 36.42239379882812 1.191677451133728 L 59.49952697753906 11.19189643859863 L 74.67990875244141 19.26248931884766 L 89.68212127685547 28.54964828491211 C 87.41233825683594 29.62747383117676 82.53075408935547 31.9326229095459 79.32051086425781 33.3553352355957 C 78.13710021972656 33.87980270385742 76.77149200439453 34.14572525024414 75.26161193847656 34.14572525024414 Z" stroke="none"/>
          <path d="M 21.93486022949219 -2.453327178955078 C 21.73014831542969 -2.392513275146484 21.48416137695312 -2.3343505859375 21.16624450683594 -2.259185791015625 C 20.22259521484375 -2.036064147949219 18.6431884765625 -1.662628173828125 17.32464599609375 -0.9434394836425781 C 15.94364929199219 -0.1901969909667969 15.19924926757812 0.7361030578613281 15.04892730712891 1.888381958007812 C 14.52619934082031 5.895048141479492 16.42824554443359 9.810482025146484 16.44625854492188 9.847015380859375 L 16.52165985107422 9.998447418212891 L 19.46944427490234 22.19050407409668 C 19.47169494628906 22.20245933532715 19.69823455810547 23.40077018737793 20.08073425292969 24.71040344238281 C 20.68154144287109 26.76749229431152 21.14898681640625 27.35494804382324 21.26022338867188 27.47275352478027 C 21.44633483886719 27.56987190246582 22.50186920166016 28.01222610473633 26.8814697265625 28.43773651123047 C 29.39668273925781 28.68210411071777 31.72959136962891 28.79453659057617 31.75286102294922 28.7956371307373 L 31.82673645019531 28.80098152160645 L 70.57777404785156 32.56632614135742 L 70.76602172851562 32.63802719116211 C 70.78620147705078 32.64560317993164 72.81175994873047 33.39572525024414 75.26161193847656 33.39572525024414 C 76.66614532470703 33.39572525024414 77.92951202392578 33.15143585205078 79.01663208007812 32.66965866088867 C 81.71637725830078 31.47318267822266 85.60356140136719 29.64989280700684 88.11563873291016 28.46198654174805 L 74.30604553222656 19.91312789916992 L 59.17391586303711 11.86818885803223 L 36.15170288085938 1.891769409179688 C 35.71048736572266 1.741170883178711 32.72487640380859 0.7247352600097656 29.56793975830078 -0.2852191925048828 C 23.95265960693359 -2.081642150878906 22.35628509521484 -2.399192810058594 21.93486022949219 -2.453327178955078 M 21.82589721679688 -3.963825225830078 C 23.68202209472656 -3.963825225830078 36.693359375 0.4917030334472656 36.693359375 0.4917030334472656 L 59.82519149780273 10.515625 L 75.0537109375 18.61181449890137 L 91.24609375 28.6357364654541 C 91.24609375 28.6357364654541 83.96369934082031 32.11791610717773 79.6243896484375 34.041015625 C 75.28508758544922 35.96411514282227 70.2353515625 34.041015625 70.2353515625 34.041015625 L 31.68163299560547 30.29394721984863 C 31.68163299560547 30.29394721984863 21.68943786621094 29.81933784484863 20.30859375 28.6357364654541 C 18.927734375 27.4521484375 17.9951171875 22.46679306030273 17.9951171875 22.46679306030273 L 15.103515625 10.515625 C 15.103515625 10.515625 12.96973419189453 6.230470657348633 13.5615234375 1.694337844848633 C 14.15331268310547 -2.841796875 20.6943359375 -3.556640625 21.658203125 -3.94189453125 C 21.69520568847656 -3.956687927246094 21.75180053710938 -3.963825225830078 21.82589721679688 -3.963825225830078 Z" stroke="none"/>
        </g>
      </g>
      <g id="AFL_Right-6" data-name="AFL Right" transform="translate(-13.458 3.964)" fill="none" style="mix-blend-mode: overlay;isolation: isolate">
        <path d="M 75.26161193847656 34.14572525024414 C 72.66205596923828 34.14572525024414 70.52280426025391 33.34788131713867 70.50149536132812 33.33982467651367 L 70.40808868408203 33.30449295043945 L 70.30789947509766 33.29453659057617 L 31.75419235229492 29.54747009277344 L 31.73574638366699 29.54566955566406 L 31.71723556518555 29.54479217529297 C 31.69239234924316 29.54361534118652 29.20302581787109 29.42369270324707 26.58188056945801 29.1618480682373 C 21.7262134552002 28.67679214477539 20.91083526611328 28.16414833068848 20.79669189453125 28.06630325317383 C 19.98258018493652 27.36849212646484 19.09941482543945 24.29114723205566 18.73232460021973 22.32888221740723 L 18.72870254516602 22.30953788757324 L 18.72408103942871 22.29041481018066 L 15.83248043060303 10.33924770355225 L 15.81259155273438 10.25703716278076 L 15.77488040924072 10.18131446838379 C 15.75489139556885 10.14098167419434 13.75141429901123 6.036370277404785 14.30522537231445 1.791359186172485 C 14.4887809753418 0.3843258917331696 15.35896968841553 -0.7256074547767639 16.96551322937012 -1.601874113082886 C 18.3725471496582 -2.36931848526001 20.01333618164062 -2.757262945175171 20.9936695098877 -2.989063024520874 C 21.37924385070801 -3.080223560333252 21.65128326416016 -3.144546985626221 21.85044097900391 -3.213500261306763 C 23.18971252441406 -3.179874658584595 31.46560859680176 -0.5050946474075317 36.42239379882812 1.191677451133728 L 59.49952697753906 11.19189643859863 L 74.67990875244141 19.26248931884766 L 89.68212127685547 28.54964828491211 C 87.41233825683594 29.62747383117676 82.53075408935547 31.9326229095459 79.32051086425781 33.3553352355957 C 78.13710021972656 33.87980270385742 76.77149200439453 34.14572525024414 75.26161193847656 34.14572525024414 Z" stroke="none"/>
        <path d="M 21.93486022949219 -2.453327178955078 C 21.73014831542969 -2.392513275146484 21.48416137695312 -2.3343505859375 21.16624450683594 -2.259185791015625 C 20.22259521484375 -2.036064147949219 18.6431884765625 -1.662628173828125 17.32464599609375 -0.9434394836425781 C 15.94364929199219 -0.1901969909667969 15.19924926757812 0.7361030578613281 15.04892730712891 1.888381958007812 C 14.52619934082031 5.895048141479492 16.42824554443359 9.810482025146484 16.44625854492188 9.847015380859375 L 16.52165985107422 9.998447418212891 L 19.46944427490234 22.19050407409668 C 19.47169494628906 22.20245933532715 19.69823455810547 23.40077018737793 20.08073425292969 24.71040344238281 C 20.68154144287109 26.76749229431152 21.14898681640625 27.35494804382324 21.26022338867188 27.47275352478027 C 21.44633483886719 27.56987190246582 22.50186920166016 28.01222610473633 26.8814697265625 28.43773651123047 C 29.39668273925781 28.68210411071777 31.72959136962891 28.79453659057617 31.75286102294922 28.7956371307373 L 31.82673645019531 28.80098152160645 L 70.57777404785156 32.56632614135742 L 70.76602172851562 32.63802719116211 C 70.78620147705078 32.64560317993164 72.81175994873047 33.39572525024414 75.26161193847656 33.39572525024414 C 76.66614532470703 33.39572525024414 77.92951202392578 33.15143585205078 79.01663208007812 32.66965866088867 C 81.71637725830078 31.47318267822266 85.60356140136719 29.64989280700684 88.11563873291016 28.46198654174805 L 74.30604553222656 19.91312789916992 L 59.17391586303711 11.86818885803223 L 36.15170288085938 1.891769409179688 C 35.71048736572266 1.741170883178711 32.72487640380859 0.7247352600097656 29.56793975830078 -0.2852191925048828 C 23.95265960693359 -2.081642150878906 22.35628509521484 -2.399192810058594 21.93486022949219 -2.453327178955078 M 21.82589721679688 -3.963825225830078 C 23.68202209472656 -3.963825225830078 36.693359375 0.4917030334472656 36.693359375 0.4917030334472656 L 59.82519149780273 10.515625 L 75.0537109375 18.61181449890137 L 91.24609375 28.6357364654541 C 91.24609375 28.6357364654541 83.96369934082031 32.11791610717773 79.6243896484375 34.041015625 C 75.28508758544922 35.96411514282227 70.2353515625 34.041015625 70.2353515625 34.041015625 L 31.68163299560547 30.29394721984863 C 31.68163299560547 30.29394721984863 21.68943786621094 29.81933784484863 20.30859375 28.6357364654541 C 18.927734375 27.4521484375 17.9951171875 22.46679306030273 17.9951171875 22.46679306030273 L 15.103515625 10.515625 C 15.103515625 10.515625 12.96973419189453 6.230470657348633 13.5615234375 1.694337844848633 C 14.15331268310547 -2.841796875 20.6943359375 -3.556640625 21.658203125 -3.94189453125 C 21.69520568847656 -3.956687927246094 21.75180053710938 -3.963825225830078 21.82589721679688 -3.963825225830078 Z" stroke="none" fill="#33fc03"/>
      </g>
    </g>
  </g>
</svg>
