<svg xmlns="http://www.w3.org/2000/svg" xmlns:xlink="http://www.w3.org/1999/xlink" width="29" height="48.846" viewBox="0 0 29 48.846">
  <defs>
    <filter id="Path_124848" x="1.062" y="0" width="27.201" height="48.846" filterUnits="userSpaceOnUse">
      <feOffset dy="3" input="SourceAlpha"/>
      <feGaussianBlur stdDeviation="3" result="blur"/>
      <feFlood flood-opacity="0.961"/>
      <feComposite operator="in" in2="blur"/>
      <feComposite in="SourceGraphic"/>
    </filter>
  </defs>
  <g id="Component_93" data-name="Component 93" transform="translate(0 4.003)">
    <rect id="Rectangle_22843" data-name="Rectangle 22843" width="29" height="35" fill="none"/>
    <g transform="matrix(1, 0, 0, 1, 0, -4)" filter="url(#Path_124848)">
      <g id="Path_124848-2" data-name="Path 124848" transform="translate(0.56 2.5)" fill="#f74200" stroke-linecap="square" stroke-linejoin="bevel">
        <path d="M 14.10058689117432 34.09631729125977 C 11.70166683197021 34.09631729125977 9.749997138977051 32.310546875 9.749997138977051 30.11552619934082 C 9.749997138977051 27.92050743103027 11.70166683197021 26.13473701477051 14.10058689117432 26.13473701477051 C 16.4995059967041 26.13473701477051 18.4511775970459 27.92050743103027 18.4511775970459 30.11552619934082 C 18.4511775970459 32.310546875 16.4995059967041 34.09631729125977 14.10058689117432 34.09631729125977 Z M 14.10058689117432 22.90394592285156 C 11.70166683197021 22.90394592285156 9.749997138977051 21.11817741394043 9.749997138977051 18.92315673828125 C 9.749997138977051 16.72813606262207 11.70166683197021 14.94236660003662 14.10058689117432 14.94236660003662 C 16.4995059967041 14.94236660003662 18.4511775970459 16.72813606262207 18.4511775970459 18.92315673828125 C 18.4511775970459 21.11817741394043 16.4995059967041 22.90394592285156 14.10058689117432 22.90394592285156 Z M 14.10058689117432 11.71157646179199 C 11.70166683197021 11.71157646179199 9.749997138977051 9.925806999206543 9.749997138977051 7.730786800384521 C 9.749997138977051 5.5357666015625 11.70166683197021 3.749996662139893 14.10058689117432 3.749996662139893 C 16.4995059967041 3.749996662139893 18.4511775970459 5.5357666015625 18.4511775970459 7.730786800384521 C 18.4511775970459 9.925806999206543 16.4995059967041 11.71157646179199 14.10058689117432 11.71157646179199 Z" stroke="none"/>
        <path d="M 14.10058689117432 3.999996185302734 C 11.84526634216309 3.999996185302734 9.999996185302734 5.678855895996094 9.999996185302734 7.73078727722168 C 9.999996185302734 9.782726287841797 11.84526634216309 11.46157646179199 14.10058689117432 11.46157646179199 C 16.35590744018555 11.46157646179199 18.20117568969727 9.782726287841797 18.20117568969727 7.73078727722168 C 18.20117568969727 5.678855895996094 16.35590744018555 3.999996185302734 14.10058689117432 3.999996185302734 M 14.10058689117432 15.19236755371094 C 11.84526634216309 15.19236755371094 9.999996185302734 16.8712272644043 9.999996185302734 18.92315673828125 C 9.999996185302734 20.97509765625 11.84526634216309 22.65394592285156 14.10058689117432 22.65394592285156 C 16.35590744018555 22.65394592285156 18.20117568969727 20.97509765625 18.20117568969727 18.92315673828125 C 18.20117568969727 16.8712272644043 16.35590744018555 15.19236755371094 14.10058689117432 15.19236755371094 M 14.10058689117432 26.38473701477051 C 11.84526634216309 26.38473701477051 9.999996185302734 28.06359672546387 9.999996185302734 30.11552619934082 C 9.999996185302734 32.16745758056641 11.84526634216309 33.84631729125977 14.10058689117432 33.84631729125977 C 16.35590744018555 33.84631729125977 18.20117568969727 32.16745758056641 18.20117568969727 30.11552619934082 C 18.20117568969727 28.06359672546387 16.35590744018555 26.38473701477051 14.10058689117432 26.38473701477051 M 14.10058689117432 3.499996185302734 C 16.63735580444336 3.499996185302734 18.70117568969727 5.397914886474609 18.70117568969727 7.73078727722168 C 18.70117568969727 10.06365585327148 16.63735580444336 11.96157646179199 14.10058689117432 11.96157646179199 C 11.56381607055664 11.96157646179199 9.499996185302734 10.06365585327148 9.499996185302734 7.73078727722168 C 9.499996185302734 5.397914886474609 11.56381607055664 3.499996185302734 14.10058689117432 3.499996185302734 Z M 14.10058689117432 14.69236755371094 C 16.63735580444336 14.69236755371094 18.70117568969727 16.59028625488281 18.70117568969727 18.92315673828125 C 18.70117568969727 21.25602722167969 16.63735580444336 23.15394592285156 14.10058689117432 23.15394592285156 C 11.56381607055664 23.15394592285156 9.499996185302734 21.25602722167969 9.499996185302734 18.92315673828125 C 9.499996185302734 16.59028625488281 11.56381607055664 14.69236755371094 14.10058689117432 14.69236755371094 Z M 14.10058689117432 25.88473701477051 C 16.63735580444336 25.88473701477051 18.70117568969727 27.78265762329102 18.70117568969727 30.11552619934082 C 18.70117568969727 32.44839477539062 16.63735580444336 34.34631729125977 14.10058689117432 34.34631729125977 C 11.56381607055664 34.34631729125977 9.499996185302734 32.44839477539062 9.499996185302734 30.11552619934082 C 9.499996185302734 27.78265762329102 11.56381607055664 25.88473701477051 14.10058689117432 25.88473701477051 Z" stroke="none" fill="#07ffc4"/>
      </g>
    </g>
  </g>
</svg>
